# Blender v2.78 (sub 0) OBJ File: '7.blend'
# www.blender.org
mtllib Table_Small_Circular_01.mtl
o Table_Small_Circular_01_Circle.009
v -4.311074 0.000000 4.039908
v -4.501732 0.000000 4.118882
v -4.580706 0.000000 4.309540
v -4.501732 0.000000 4.500198
v -4.311074 0.000000 4.579171
v -4.120416 0.000000 4.500198
v -4.041442 0.000000 4.309540
v -4.120416 0.000000 4.118882
v -4.311074 7.385418 3.854496
v -4.632838 7.385418 3.987776
v -4.766117 7.385418 4.309540
v -4.632838 7.385418 4.631304
v -4.311074 7.385418 4.764583
v -3.989310 7.385418 4.631304
v -3.856031 7.385418 4.309540
v -3.989310 7.385418 3.987776
v -4.311074 0.000000 4.309540
v 4.311074 0.000000 4.039908
v 4.501732 0.000000 4.118882
v 4.580706 0.000000 4.309540
v 4.501732 0.000000 4.500198
v 4.311074 0.000000 4.579171
v 4.120416 0.000000 4.500198
v 4.041442 0.000000 4.309540
v 4.120416 0.000000 4.118882
v 4.311074 7.385418 3.854496
v 4.632838 7.385418 3.987776
v 4.766117 7.385418 4.309540
v 4.632838 7.385418 4.631304
v 4.311074 7.385418 4.764583
v 3.989310 7.385418 4.631304
v 3.856031 7.385418 4.309540
v 3.989310 7.385418 3.987776
v 4.311074 0.000000 4.309540
v -4.311074 0.000000 -4.039908
v -4.501732 0.000000 -4.118882
v -4.580706 0.000000 -4.309540
v -4.501732 0.000000 -4.500198
v -4.311074 0.000000 -4.579171
v -4.120416 0.000000 -4.500198
v -4.041442 0.000000 -4.309540
v -4.120416 0.000000 -4.118882
v -4.311074 7.385418 -3.854496
v -4.632838 7.385418 -3.987776
v -4.766117 7.385418 -4.309540
v -4.632838 7.385418 -4.631304
v -4.311074 7.385418 -4.764583
v -3.989310 7.385418 -4.631304
v -3.856031 7.385418 -4.309540
v -3.989310 7.385418 -3.987776
v -4.311074 0.000000 -4.309540
v 4.311074 0.000000 -4.039908
v 4.501732 0.000000 -4.118882
v 4.580706 0.000000 -4.309540
v 4.501732 0.000000 -4.500198
v 4.311074 0.000000 -4.579171
v 4.120416 0.000000 -4.500198
v 4.041442 0.000000 -4.309540
v 4.120416 0.000000 -4.118882
v 4.311074 7.385418 -3.854496
v 4.632838 7.385418 -3.987776
v 4.766117 7.385418 -4.309540
v 4.632838 7.385418 -4.631304
v 4.311074 7.385418 -4.764583
v 3.989310 7.385418 -4.631304
v 3.856031 7.385418 -4.309540
v 3.989310 7.385418 -3.987776
v 4.311074 0.000000 -4.309540
v 0.000000 7.277915 -7.527497
v -2.880649 7.277915 -6.954501
v -5.322743 7.277915 -5.322744
v -6.954500 7.277915 -2.880648
v -7.527497 7.277915 0.000000
v -6.954500 7.277915 2.880649
v -5.322743 7.277915 5.322744
v -2.880649 7.277915 6.954501
v -0.000001 7.277915 7.527497
v 2.880647 7.277915 6.954501
v 5.322743 7.277915 5.322746
v 6.954501 7.277915 2.880650
v 7.527497 7.277915 -0.000000
v 6.954501 7.277915 -2.880650
v 5.322743 7.277915 -5.322746
v 2.880645 7.277915 -6.954503
v -0.000000 7.277915 -4.133565
v -1.581847 7.277915 -3.818916
v -2.922871 7.277915 -2.922872
v -3.818916 7.277915 -1.581847
v -4.133564 7.277915 0.000000
v -3.818916 7.277915 1.581847
v -2.922871 7.277915 2.922872
v -1.581847 7.277915 3.818916
v -0.000001 7.277915 4.133565
v 1.581846 7.277915 3.818916
v 2.922871 7.277915 2.922873
v 3.818916 7.277915 1.581848
v 4.133565 7.277915 0.000000
v 3.818916 7.277915 -1.581847
v 2.922871 7.277915 -2.922873
v 1.581845 7.277915 -3.818917
v -0.000000 7.277913 0.000000
v -1.581847 7.795279 -3.818916
v -0.000000 7.795279 -4.133565
v -2.922871 7.795279 -2.922872
v -3.818916 7.795279 -1.581847
v -4.133564 7.795279 0.000000
v -3.818916 7.795279 1.581847
v -2.922871 7.795279 2.922872
v -1.581847 7.795279 3.818916
v -0.000001 7.795279 4.133565
v 1.581846 7.795279 3.818916
v 2.922871 7.795279 2.922873
v 3.818916 7.795279 1.581848
v 4.133565 7.795279 0.000000
v 3.818916 7.795279 -1.581847
v 2.922871 7.795279 -2.922873
v 1.581845 7.795279 -3.818917
v -0.000000 7.795278 0.000000
v 5.182318 7.795280 -5.182321
v 5.322743 7.559862 -5.322746
v 6.771026 7.795279 -2.804652
v 6.954501 7.559862 -2.880650
v 7.328906 7.795280 -0.000000
v 7.527497 7.559862 -0.000000
v 6.771026 7.795280 2.804651
v 6.954501 7.559862 2.880650
v 5.182318 7.795280 5.182321
v 5.322743 7.559862 5.322746
v 2.804649 7.795280 6.771026
v 2.880647 7.559862 6.954501
v -0.000001 7.795279 7.328905
v -0.000001 7.559862 7.527497
v -2.804651 7.795280 6.771026
v -2.880649 7.559862 6.954501
v -5.182318 7.795280 5.182319
v -5.322743 7.559862 5.322744
v -6.771025 7.795280 2.804651
v -6.954500 7.559862 2.880649
v -7.328905 7.795280 0.000000
v -7.527497 7.559862 0.000000
v -6.771025 7.795280 -2.804650
v -6.954500 7.559862 -2.880648
v -5.182318 7.795280 -5.182319
v -5.322743 7.559862 -5.322744
v 0.000000 7.559862 -7.527497
v 0.000000 7.795280 -7.328906
v -2.804651 7.795280 -6.771026
v -2.880649 7.559862 -6.954501
v 2.804647 7.795280 -6.771028
v 2.880645 7.559862 -6.954503
vn -0.9236 -0.0232 0.3826
vn -0.3826 -0.0232 -0.9236
vn 0.3826 -0.0232 -0.9236
vn 0.9236 -0.0232 0.3826
vn -0.3826 -0.0232 0.9236
vn -0.9236 -0.0232 -0.3826
vn 0.9236 -0.0232 -0.3826
vn 0.3826 -0.0232 0.9236
vn 0.0000 -1.0000 0.0000
vn 0.1951 0.0000 0.9808
vn -0.5556 0.0000 -0.8315
vn 0.5556 0.0000 0.8315
vn -0.8315 0.0000 -0.5556
vn 0.8315 0.0000 0.5556
vn -0.9808 0.0000 -0.1951
vn 0.9808 0.0000 0.1951
vn -0.9808 0.0000 0.1951
vn 0.5556 0.0000 -0.8315
vn -0.8315 0.0000 0.5556
vn 0.8315 0.0000 -0.5556
vn -0.5556 0.0000 0.8315
vn -0.0000 1.0000 0.0000
vn -0.1951 0.0000 -0.9808
vn -0.1951 0.0000 0.9808
vn 0.1951 0.0000 -0.9808
vn 0.9808 0.0000 -0.1951
vn 0.1503 0.6375 -0.7557
vn 0.4281 0.6375 -0.6406
vn 0.6406 0.6375 -0.4281
vn 0.7557 0.6375 -0.1503
vn 0.7557 0.6375 0.1503
vn 0.6406 0.6375 0.4281
vn 0.4281 0.6375 0.6406
vn 0.1503 0.6375 0.7557
vn -0.1503 0.6375 0.7557
vn -0.4281 0.6375 0.6406
vn -0.6406 0.6375 0.4281
vn -0.7557 0.6375 0.1503
vn -0.7557 0.6375 -0.1503
vn -0.6406 0.6375 -0.4281
vn -0.4281 0.6375 -0.6406
vn -0.1503 0.6375 -0.7557
usemtl 795548
s off
f 3//1 4//1 12//1 11//1
f 1//2 2//2 10//2 9//2
f 8//3 1//3 9//3 16//3
f 6//4 7//4 15//4 14//4
f 4//5 5//5 13//5 12//5
f 2//6 3//6 11//6 10//6
f 7//7 8//7 16//7 15//7
f 5//8 6//8 14//8 13//8
f 4//9 3//9 17//9
f 2//9 1//9 17//9
f 1//9 8//9 17//9
f 7//9 6//9 17//9
f 5//9 4//9 17//9
f 3//9 2//9 17//9
f 8//9 7//9 17//9
f 6//9 5//9 17//9
f 20//4 28//4 29//4 21//4
f 18//3 26//3 27//3 19//3
f 25//2 33//2 26//2 18//2
f 23//1 31//1 32//1 24//1
f 21//8 29//8 30//8 22//8
f 19//7 27//7 28//7 20//7
f 24//6 32//6 33//6 25//6
f 22//5 30//5 31//5 23//5
f 21//9 34//9 20//9
f 19//9 34//9 18//9
f 18//9 34//9 25//9
f 24//9 34//9 23//9
f 22//9 34//9 21//9
f 20//9 34//9 19//9
f 25//9 34//9 24//9
f 23//9 34//9 22//9
f 37//6 45//6 46//6 38//6
f 35//5 43//5 44//5 36//5
f 42//8 50//8 43//8 35//8
f 40//7 48//7 49//7 41//7
f 38//2 46//2 47//2 39//2
f 36//1 44//1 45//1 37//1
f 41//4 49//4 50//4 42//4
f 39//3 47//3 48//3 40//3
f 38//9 51//9 37//9
f 36//9 51//9 35//9
f 35//9 51//9 42//9
f 41//9 51//9 40//9
f 39//9 51//9 38//9
f 37//9 51//9 36//9
f 42//9 51//9 41//9
f 40//9 51//9 39//9
f 54//7 55//7 63//7 62//7
f 52//8 53//8 61//8 60//8
f 59//5 52//5 60//5 67//5
f 57//6 58//6 66//6 65//6
f 55//3 56//3 64//3 63//3
f 53//4 54//4 62//4 61//4
f 58//1 59//1 67//1 66//1
f 56//2 57//2 65//2 64//2
f 55//9 54//9 68//9
f 53//9 52//9 68//9
f 52//9 59//9 68//9
f 58//9 57//9 68//9
f 56//9 55//9 68//9
f 54//9 53//9 68//9
f 59//9 58//9 68//9
f 57//9 56//9 68//9
f 78//9 94//9 95//9 79//9
f 71//9 87//9 88//9 72//9
f 79//9 95//9 96//9 80//9
f 72//9 88//9 89//9 73//9
f 80//9 96//9 97//9 81//9
f 73//9 89//9 90//9 74//9
f 81//9 97//9 98//9 82//9
f 74//9 90//9 91//9 75//9
f 82//9 98//9 99//9 83//9
f 75//9 91//9 92//9 76//9
f 83//9 99//9 100//9 84//9
f 76//9 92//9 93//9 77//9
f 69//9 85//9 86//9 70//9
f 84//9 100//9 85//9 69//9
f 77//9 93//9 94//9 78//9
f 70//9 86//9 87//9 71//9
f 85//9 101//9 86//9
f 100//9 101//9 85//9
f 93//9 101//9 94//9
f 86//9 101//9 87//9
f 94//9 101//9 95//9
f 87//9 101//9 88//9
f 95//9 101//9 96//9
f 88//9 101//9 89//9
f 96//9 101//9 97//9
f 89//9 101//9 90//9
f 97//9 101//9 98//9
f 90//9 101//9 91//9
f 98//9 101//9 99//9
f 91//9 101//9 92//9
f 99//9 101//9 100//9
f 92//9 101//9 93//9
f 77//10 78//10 130//10 132//10
f 70//11 71//11 144//11 148//11
f 78//12 79//12 128//12 130//12
f 71//13 72//13 142//13 144//13
f 79//14 80//14 126//14 128//14
f 72//15 73//15 140//15 142//15
f 80//16 81//16 124//16 126//16
f 73//17 74//17 138//17 140//17
f 83//18 84//18 150//18 120//18
f 74//19 75//19 136//19 138//19
f 82//20 83//20 120//20 122//20
f 75//21 76//21 134//21 136//21
f 149//22 146//22 103//22 117//22
f 69//23 70//23 148//23 145//23
f 76//24 77//24 132//24 134//24
f 84//25 69//25 145//25 150//25
f 103//22 102//22 118//22
f 117//22 103//22 118//22
f 110//22 111//22 118//22
f 102//22 104//22 118//22
f 111//22 112//22 118//22
f 104//22 105//22 118//22
f 112//22 113//22 118//22
f 105//22 106//22 118//22
f 113//22 114//22 118//22
f 106//22 107//22 118//22
f 114//22 115//22 118//22
f 107//22 108//22 118//22
f 115//22 116//22 118//22
f 108//22 109//22 118//22
f 116//22 117//22 118//22
f 109//22 110//22 118//22
f 129//22 127//22 112//22 111//22
f 143//22 141//22 105//22 104//22
f 127//22 125//22 113//22 112//22
f 141//22 139//22 106//22 105//22
f 125//22 123//22 114//22 113//22
f 139//22 137//22 107//22 106//22
f 123//22 121//22 115//22 114//22
f 137//22 135//22 108//22 107//22
f 121//22 119//22 116//22 115//22
f 135//22 133//22 109//22 108//22
f 81//26 82//26 122//26 124//26
f 133//22 131//22 110//22 109//22
f 146//22 147//22 102//22 103//22
f 131//22 129//22 111//22 110//22
f 147//22 143//22 104//22 102//22
f 146//27 149//27 150//27 145//27
f 149//28 119//28 120//28 150//28
f 119//29 121//29 122//29 120//29
f 121//30 123//30 124//30 122//30
f 123//31 125//31 126//31 124//31
f 125//32 127//32 128//32 126//32
f 127//33 129//33 130//33 128//33
f 129//34 131//34 132//34 130//34
f 131//35 133//35 134//35 132//35
f 133//36 135//36 136//36 134//36
f 135//37 137//37 138//37 136//37
f 137//38 139//38 140//38 138//38
f 139//39 141//39 142//39 140//39
f 141//40 143//40 144//40 142//40
f 143//41 147//41 148//41 144//41
f 147//42 146//42 145//42 148//42
f 119//22 149//22 117//22 116//22
